<svg width="24" height="24" viewBox="0 0 24 24" fill="none" xmlns="http://www.w3.org/2000/svg">
<g clip-path="url(#clip0_1_271)">
<path fill-rule="evenodd" clip-rule="evenodd" d="M16.8 7.20364C16.8 4.55701 14.6472 2.40468 12 2.40468C9.3528 2.40468 7.2 4.55701 7.2 7.20364C7.2 9.85027 9.3528 12.0026 12 12.0026C14.6472 12.0026 16.8 9.85027 16.8 7.20364ZM24 24H18V21.6005H21.3408C20.3496 17.0583 16.542 14.4021 12 14.4021C7.458 14.4021 3.6504 17.0583 2.6592 21.6005H6V24H0C0 18.5352 3.0996 14.4597 7.4904 12.81C6.65021 12.137 5.97217 11.2837 5.50646 10.3132C5.04076 9.34276 4.79931 8.28001 4.8 7.20364C4.79912 5.98656 5.10691 4.78913 5.69461 3.72327C6.2823 2.65741 7.13071 1.75794 8.16052 1.10892C9.19033 0.459894 10.3679 0.0825214 11.5832 0.0120712C12.7985 -0.058379 14.0119 0.180394 15.1098 0.706071C16.2077 1.23175 17.1544 2.02716 17.8614 3.01797C18.5684 4.00878 19.0125 5.16262 19.1523 6.37164C19.2922 7.58067 19.1231 8.8054 18.6609 9.93136C18.1988 11.0573 17.4586 12.0477 16.5096 12.81C20.9004 14.4597 24 18.5352 24 24ZM8.4 24H15.6V21.6005H8.4V24Z" fill="#E8E8E8"/>
</g>
<defs>
<clipPath id="clip0_1_271">
<rect width="24" height="24" fill="white"/>
</clipPath>
</defs>
</svg>
