<svg width="24" height="24" viewBox="0 0 24 24" fill="none" xmlns="http://www.w3.org/2000/svg">
<g clip-path="url(#clip0_1_341)">
<path d="M24 5.33333C24 2.4 21.6 0 18.6667 0H17.3333C16.5333 0 16 0.533333 16 1.33333C16 2.13333 16.5333 2.66667 17.3333 2.66667H18.6667C20.1333 2.66667 21.3333 3.86667 21.3333 5.33333V6.8C21.3333 7.6 21.8667 8.13333 22.6667 8.13333C23.4667 8.13333 24 7.6 24 6.8V5.33333ZM24 17.3333C24 16.5333 23.4667 16 22.6667 16C21.8667 16 21.3333 16.5333 21.3333 17.3333V18.6667C21.3333 20.1333 20.1333 21.3333 18.6667 21.3333H17.3333C16.5333 21.3333 16 21.8667 16 22.6667C16 23.4667 16.5333 24 17.3333 24H18.6667C21.6 24 24 21.6 24 18.6667V17.3333ZM0 18.6667C0 21.6 2.4 24 5.33333 24H6.66667C7.46667 24 8 23.4667 8 22.6667C8 21.8667 7.46667 21.3333 6.66667 21.3333H5.33333C3.86667 21.3333 2.66667 20.1333 2.66667 18.6667V17.3333C2.66667 16.5333 2.13333 16 1.33333 16C0.533333 16 0 16.5333 0 17.3333V18.6667ZM6.66667 0H5.33333C2.4 0 0 2.4 0 5.33333V6.66667C0 7.46667 0.533333 8 1.33333 8C2.13333 8 2.66667 7.46667 2.66667 6.66667V5.33333C2.66667 3.86667 3.86667 2.66667 5.33333 2.66667H6.66667C7.46667 2.66667 8 2.13333 8 1.33333C8 0.533333 7.46667 0 6.66667 0ZM16 8C16 5.73333 14.2667 4 12 4C9.73333 4 8 5.73333 8 8C8 10.2667 9.73333 12 12 12C14.2667 12 16 10.2667 16 8ZM12 9.33333C11.2 9.33333 10.6667 8.8 10.6667 8C10.6667 7.2 11.2 6.66667 12 6.66667C12.8 6.66667 13.3333 7.2 13.3333 8C13.3333 8.8 12.8 9.33333 12 9.33333Z" fill="#E8E8E8"/>
<path d="M5.76174 15.2507L5.22668 17.0115C4.95915 17.6887 5.36045 18.5014 6.02928 18.7723C6.6981 19.0432 7.5007 18.6368 7.76823 17.9596L8.30329 16.0634C8.57082 15.2507 9.37341 14.7089 10.176 14.7089H13.3864C14.189 14.7089 14.9916 15.2507 15.2591 16.0634L15.7942 17.8242C15.9279 18.366 16.463 18.7723 16.9981 18.7723C17.1318 18.7723 17.2656 18.7723 17.3994 18.6368C18.0682 18.366 18.4695 17.6887 18.2019 16.876L17.6669 15.1153C17.1318 13.3545 15.3929 12 13.3864 12H10.176C8.16953 12 6.43057 13.3545 5.76174 15.2507Z" fill="#E8E8E8"/>
</g>
<defs>
<clipPath id="clip0_1_341">
<rect width="24" height="24" fill="white"/>
</clipPath>
</defs>
</svg>
