<svg width="24" height="24" viewBox="0 0 24 24" fill="none" xmlns="http://www.w3.org/2000/svg">
<path d="M20.854 5.146L15.854 0.146C15.7598 0.0526563 15.6326 0.000199137 15.5 0L5 0C3.897 0 3 0.897 3 2V22C3 23.103 3.897 24 5 24H19C20.103 24 21 23.103 21 22V5.5C20.9998 5.36739 20.9473 5.2402 20.854 5.146Z" fill="#E8E8E8"/>
<path d="M16 1.707L19.293 5H17C16.449 5 16 4.551 16 4V1.707Z" fill="#A9A9A9"/>
<path d="M19 23H5C4.449 23 4 22.551 4 22V2C4 1.449 4.449 1 5 1H15V4C15 5.103 15.897 6 17 6H20V22C20 22.551 19.551 23 19 23Z" fill="#A9A9A9"/>
<path d="M16.5 11H7.5C7.36739 11 7.24021 11.0527 7.14645 11.1464C7.05268 11.2402 7 11.3674 7 11.5C7 11.6326 7.05268 11.7598 7.14645 11.8536C7.24021 11.9473 7.36739 12 7.5 12H16.5C16.6326 12 16.7598 11.9473 16.8536 11.8536C16.9473 11.7598 17 11.6326 17 11.5C17 11.3674 16.9473 11.2402 16.8536 11.1464C16.7598 11.0527 16.6326 11 16.5 11ZM16.5 13H7.5C7.36739 13 7.24021 13.0527 7.14645 13.1464C7.05268 13.2402 7 13.3674 7 13.5C7 13.6326 7.05268 13.7598 7.14645 13.8536C7.24021 13.9473 7.36739 14 7.5 14H16.5C16.6326 14 16.7598 13.9473 16.8536 13.8536C16.9473 13.7598 17 13.6326 17 13.5C17 13.3674 16.9473 13.2402 16.8536 13.1464C16.7598 13.0527 16.6326 13 16.5 13ZM16.5 15H7.5C7.36739 15 7.24021 15.0527 7.14645 15.1464C7.05268 15.2402 7 15.3674 7 15.5C7 15.6326 7.05268 15.7598 7.14645 15.8536C7.24021 15.9473 7.36739 16 7.5 16H16.5C16.6326 16 16.7598 15.9473 16.8536 15.8536C16.9473 15.7598 17 15.6326 17 15.5C17 15.3674 16.9473 15.2402 16.8536 15.1464C16.7598 15.0527 16.6326 15 16.5 15ZM12.5 17H7.5C7.36739 17 7.24021 17.0527 7.14645 17.1464C7.05268 17.2402 7 17.3674 7 17.5C7 17.6326 7.05268 17.7598 7.14645 17.8536C7.24021 17.9473 7.36739 18 7.5 18H12.5C12.6326 18 12.7598 17.9473 12.8536 17.8536C12.9473 17.7598 13 17.6326 13 17.5C13 17.3674 12.9473 17.2402 12.8536 17.1464C12.7598 17.0527 12.6326 17 12.5 17Z" fill="white"/>
</svg>
