<svg width="26" height="26" viewBox="0 0 26 26" fill="none" xmlns="http://www.w3.org/2000/svg">
<path d="M8.27734 14.875H3.84766C2.27494 14.875 1 16.1499 1 17.7227V22.1523C1 23.7251 2.27494 25 3.84766 25H8.27734C9.85006 25 11.125 23.7251 11.125 22.1523V17.7227C11.125 16.1499 9.85006 14.875 8.27734 14.875Z" stroke="#E8E8E8" stroke-width="2"/>
<path d="M8.27734 1H3.84766C2.27494 1 1 2.27494 1 3.84766V8.27734C1 9.85006 2.27494 11.125 3.84766 11.125H8.27734C9.85006 11.125 11.125 9.85006 11.125 8.27734V3.84766C11.125 2.27494 9.85006 1 8.27734 1Z" stroke="#E8E8E8" stroke-width="2"/>
<path d="M22.1523 14.875H17.7227C16.1499 14.875 14.875 16.1499 14.875 17.7227V22.1523C14.875 23.7251 16.1499 25 17.7227 25H22.1523C23.7251 25 25 23.7251 25 22.1523V17.7227C25 16.1499 23.7251 14.875 22.1523 14.875Z" stroke="#E8E8E8" stroke-width="2"/>
<path d="M22.1523 1H17.7227C16.1499 1 14.875 2.27494 14.875 3.84766V8.27734C14.875 9.85006 16.1499 11.125 17.7227 11.125H22.1523C23.7251 11.125 25 9.85006 25 8.27734V3.84766C25 2.27494 23.7251 1 22.1523 1Z" stroke="#E8E8E8" stroke-width="2"/>
</svg>
